<?xml version="1.0" encoding="UTF-8"?>
<svg xmlns="http://www.w3.org/2000/svg" xmlns:xlink="http://www.w3.org/1999/xlink" width="2492" height="2483" viewBox="0 0 2492 2483" version="1.1">
<g id="surface1">
<path style=" stroke:none;fill-rule:nonzero;fill:rgb(0%,0%,0%);fill-opacity:1;" d="M 391.320312 984.4375 C 387.429688 984.4375 386.453125 982.488281 388.402344 979.566406 L 408.84375 953.277344 C 410.789062 950.355469 415.65625 948.410156 419.550781 948.410156 L 767.070312 948.410156 C 770.960938 948.410156 771.9375 951.328125 769.988281 954.25 L 753.441406 979.566406 C 751.492188 982.488281 746.625 985.410156 743.707031 985.410156 Z M 391.320312 984.4375 "/>
<path style=" stroke:none;fill-rule:nonzero;fill:rgb(0%,0%,0%);fill-opacity:1;" d="M 244.332031 1074.019531 C 240.4375 1074.019531 239.464844 1072.070312 241.414062 1069.152344 L 261.855469 1042.859375 C 263.800781 1039.9375 268.667969 1037.992188 272.5625 1037.992188 L 716.449219 1037.992188 C 720.34375 1037.992188 722.289062 1040.914062 721.316406 1043.832031 L 713.53125 1067.203125 C 712.554688 1071.097656 708.664062 1073.046875 704.769531 1073.046875 Z M 244.332031 1074.019531 "/>
<path style=" stroke:none;fill-rule:nonzero;fill:rgb(0%,0%,0%);fill-opacity:1;" d="M 479.90625 1163.601562 C 476.011719 1163.601562 475.039062 1160.679688 476.984375 1157.757812 L 490.613281 1133.417969 C 492.558594 1130.496094 496.453125 1127.574219 500.347656 1127.574219 L 695.035156 1127.574219 C 698.929688 1127.574219 700.875 1130.496094 700.875 1134.390625 L 698.929688 1157.757812 C 698.929688 1161.65625 695.035156 1164.574219 692.113281 1164.574219 Z M 479.90625 1163.601562 "/>
<path style=" stroke:none;fill-rule:nonzero;fill:rgb(0%,0%,0%);fill-opacity:1;" d="M 1490.332031 966.910156 C 1429.007812 982.488281 1387.148438 994.171875 1326.796875 1009.753906 C 1312.195312 1013.648438 1311.21875 1014.621094 1298.566406 1000.015625 C 1283.964844 983.460938 1273.257812 972.75 1252.8125 963.015625 C 1191.488281 932.828125 1132.109375 941.59375 1076.621094 977.621094 C 1010.429688 1020.464844 976.359375 1083.757812 977.332031 1162.628906 C 978.304688 1240.527344 1031.84375 1304.792969 1108.746094 1315.503906 C 1174.9375 1324.265625 1230.425781 1300.898438 1274.230469 1251.238281 C 1282.992188 1240.527344 1290.777344 1228.839844 1300.511719 1215.210938 C 1265.46875 1215.210938 1221.664062 1215.210938 1112.640625 1215.210938 C 1092.195312 1215.210938 1087.328125 1202.550781 1094.144531 1185.996094 C 1106.796875 1155.8125 1130.160156 1105.179688 1143.789062 1079.863281 C 1146.710938 1074.019531 1153.523438 1064.28125 1168.125 1064.28125 C 1217.769531 1064.28125 1400.777344 1064.28125 1522.457031 1064.28125 C 1520.507812 1090.574219 1520.507812 1116.863281 1516.617188 1143.152344 C 1505.90625 1213.261719 1479.625 1277.527344 1436.792969 1334.003906 C 1366.707031 1426.507812 1275.203125 1483.957031 1159.363281 1499.539062 C 1063.96875 1512.195312 975.382812 1493.695312 897.507812 1435.269531 C 825.476562 1380.742188 784.589844 1308.6875 773.882812 1219.105469 C 761.226562 1112.96875 792.378906 1017.542969 856.625 933.804688 C 925.738281 843.246094 1017.242188 785.796875 1129.1875 765.347656 C 1220.691406 748.792969 1308.300781 759.507812 1387.148438 813.0625 C 1438.742188 847.140625 1475.730469 893.878906 1500.066406 950.355469 C 1505.90625 959.121094 1502.015625 963.988281 1490.332031 966.910156 Z M 1490.332031 966.910156 "/>
<path style=" stroke:none;fill-rule:nonzero;fill:rgb(0%,0%,0%);fill-opacity:1;" d="M 1812.539062 1505.378906 C 1723.957031 1503.433594 1643.164062 1478.117188 1575.023438 1419.691406 C 1517.589844 1370.03125 1481.570312 1306.738281 1469.890625 1231.761719 C 1452.367188 1121.730469 1482.546875 1024.359375 1548.738281 937.699219 C 1619.800781 844.21875 1705.460938 795.535156 1821.300781 775.085938 C 1920.59375 757.558594 2014.042969 767.296875 2098.730469 824.746094 C 2175.632812 877.328125 2223.332031 948.410156 2235.984375 1041.886719 C 2252.535156 1173.339844 2214.570312 1280.449219 2124.039062 1371.980469 C 2059.792969 1437.21875 1980.945312 1478.117188 1890.414062 1496.617188 C 1864.132812 1501.484375 1837.851562 1502.457031 1812.539062 1505.378906 Z M 2044.21875 1111.996094 C 2043.246094 1099.335938 2043.246094 1089.597656 2041.296875 1079.863281 C 2023.777344 983.460938 1935.195312 928.933594 1842.71875 950.355469 C 1752.1875 970.804688 1693.78125 1028.253906 1672.367188 1119.785156 C 1654.84375 1195.734375 1691.835938 1272.660156 1761.921875 1303.820312 C 1815.460938 1327.1875 1869 1324.265625 1920.59375 1297.976562 C 1997.492188 1258.054688 2039.351562 1195.734375 2044.21875 1111.996094 Z M 2044.21875 1111.996094 "/>
</g>
</svg>
