<svg width="23" height="22" viewBox="0 0 23 22" fill="none" xmlns="http://www.w3.org/2000/svg">
<path d="M11.9158 2.14532C11.773 2.14532 11.6361 2.20206 11.5351 2.30305C11.4341 2.40403 11.3774 2.541 11.3774 2.68382V5.48398C11.3774 6.96698 12.3757 8.21521 13.7359 8.59646C13.499 11.5474 12.646 13.7498 11.9471 15.1079C12.1452 15.3405 12.3316 15.5139 12.477 15.6356C13.0359 16.103 13.5313 16.8645 13.5313 17.8144C13.532 18.3767 13.3524 18.9244 13.0187 19.3771H18.9162C19.3447 19.3771 19.7556 19.2069 20.0586 18.9039C20.3615 18.601 20.5317 18.19 20.5317 17.7616V17.431C20.5317 17.0562 20.4036 16.7105 20.2065 16.4272C19.6249 15.5904 17.9782 12.8839 17.6336 8.59538C18.3125 8.40526 18.9106 7.99827 19.3366 7.4365C19.7627 6.87473 19.9933 6.18902 19.9932 5.48398V2.68382C19.9932 2.541 19.9365 2.40403 19.8355 2.30305C19.7345 2.20206 19.5976 2.14532 19.4547 2.14532H18.647C18.4328 2.14532 18.2273 2.23043 18.0758 2.38191C17.9244 2.53339 17.8393 2.73884 17.8393 2.95306V3.7608C17.8394 3.83152 17.8256 3.90157 17.7987 3.96696C17.7717 4.03234 17.7322 4.09178 17.6823 4.14189C17.5815 4.24308 17.4447 4.30008 17.3018 4.30037C17.159 4.30066 17.0219 4.2442 16.9208 4.14341C16.8196 4.04263 16.7626 3.90577 16.7623 3.76296V3.7608L16.758 2.94876C16.7568 2.73528 16.6712 2.53093 16.5199 2.38038C16.3685 2.22983 16.1637 2.14532 15.9502 2.14532H15.4204C15.2069 2.14532 15.0021 2.22983 14.8507 2.38038C14.6994 2.53093 14.6138 2.73528 14.6126 2.94876L14.6083 3.76403C14.6079 3.90685 14.5507 4.04365 14.4494 4.14433C14.3482 4.24501 14.211 4.30134 14.0682 4.30091C13.9254 4.30048 13.7886 4.24334 13.6879 4.14205C13.5872 4.04076 13.5309 3.90362 13.5313 3.7608V2.95306C13.5313 2.73884 13.4462 2.53339 13.2947 2.38191C13.1433 2.23043 12.9378 2.14532 12.7236 2.14532H11.9158ZM7.6079 5.37628C6.9842 5.37629 6.37383 5.55683 5.85047 5.8961C5.32711 6.23537 4.91314 6.71887 4.65852 7.28823C4.4039 7.8576 4.31952 8.48849 4.41556 9.10476C4.5116 9.72102 4.78396 10.2963 5.19977 10.7612H4.91544C4.62981 10.7612 4.35587 10.8747 4.1539 11.0766C3.95193 11.2786 3.83846 11.5526 3.83846 11.8382C3.83846 12.1238 3.95193 12.3978 4.1539 12.5997C4.35587 12.8017 4.62981 12.9152 4.91544 12.9152H5.47548C5.07484 14.8516 4.01832 15.9695 3.4292 16.4617C3.05657 16.774 2.76147 17.2543 2.76147 17.8144C2.76147 18.677 3.46151 19.3771 4.32418 19.3771H10.8927C11.7543 19.3771 12.4543 18.677 12.4543 17.8144C12.4543 17.2543 12.1592 16.774 11.7866 16.4617C11.1975 15.9695 10.141 14.8516 9.74033 12.9152H10.3004C10.586 12.9152 10.8599 12.8017 11.0619 12.5997C11.2639 12.3978 11.3774 12.1238 11.3774 11.8382C11.3774 11.5526 11.2639 11.2786 11.0619 11.0766C10.8599 10.8747 10.586 10.7612 10.3004 10.7612H10.016C10.4318 10.2963 10.7042 9.72102 10.8002 9.10476C10.8963 8.48849 10.8119 7.8576 10.5573 7.28823C10.3027 6.71887 9.8887 6.23537 9.36534 5.8961C8.84198 5.55683 8.23161 5.37629 7.6079 5.37628Z" fill="white"/>
</svg>
