<svg width="18" height="17" viewBox="0 0 18 17" fill="none" xmlns="http://www.w3.org/2000/svg">
<path d="M8.94536 11.8501C8.09998 11.8501 7.36184 11.5867 6.73094 11.0601C6.10003 10.5334 5.70329 9.87028 5.5407 9.07077H1.99707V7.68111H5.5407C5.70282 6.88206 6.09957 6.21896 6.73094 5.69182C7.36231 5.16467 8.10045 4.90133 8.94536 4.9018C9.79027 4.90226 10.5286 5.16583 11.1605 5.69251C11.7923 6.21919 12.1888 6.88206 12.35 7.68111H15.8936V9.07077H12.35C12.1879 9.86982 11.7914 10.5329 11.1605 11.0601C10.5296 11.5872 9.7912 11.8505 8.94536 11.8501ZM8.94536 10.4604C9.52438 10.4604 10.0166 10.2578 10.4219 9.85245C10.8272 9.44713 11.0298 8.95496 11.0298 8.37594C11.0298 7.79691 10.8272 7.30474 10.4219 6.89943C10.0166 6.49411 9.52438 6.29145 8.94536 6.29145C8.36633 6.29145 7.87416 6.49411 7.46885 6.89943C7.06353 7.30474 6.86087 7.79691 6.86087 8.37594C6.86087 8.95496 7.06353 9.44713 7.46885 9.85245C7.87416 10.2578 8.36633 10.4604 8.94536 10.4604Z" fill="white"/>
</svg>
